<svg width="34" height="40" viewBox="0 0 34 40" fill="none" xmlns="http://www.w3.org/2000/svg">
<g filter="url(#filter0_d_1972_31219)">
<path d="M17 19.5C16.337 19.5 15.7011 19.2366 15.2322 18.7678C14.7634 18.2989 14.5 17.663 14.5 17C14.5 16.337 14.7634 15.7011 15.2322 15.2322C15.7011 14.7634 16.337 14.5 17 14.5C17.663 14.5 18.2989 14.7634 18.7678 15.2322C19.2366 15.7011 19.5 16.337 19.5 17C19.5 17.3283 19.4353 17.6534 19.3097 17.9567C19.1841 18.26 18.9999 18.5356 18.7678 18.7678C18.5356 18.9999 18.26 19.1841 17.9567 19.3097C17.6534 19.4353 17.3283 19.5 17 19.5ZM17 10C15.1435 10 13.363 10.7375 12.0503 12.0503C10.7375 13.363 10 15.1435 10 17C10 22.25 17 30 17 30C17 30 24 22.25 24 17C24 15.1435 23.2625 13.363 21.9497 12.0503C20.637 10.7375 18.8565 10 17 10Z" fill="#36424E"/>
<path d="M14.8787 19.1213C15.4413 19.6839 16.2044 20 17 20C17.394 20 17.7841 19.9224 18.1481 19.7716C18.512 19.6209 18.8427 19.3999 19.1213 19.1213C19.3999 18.8427 19.6209 18.512 19.7716 18.1481C19.9224 17.7841 20 17.394 20 17C20 16.2044 19.6839 15.4413 19.1213 14.8787C18.5587 14.3161 17.7956 14 17 14C16.2044 14 15.4413 14.3161 14.8787 14.8787C14.3161 15.4413 14 16.2044 14 17C14 17.7956 14.3161 18.5587 14.8787 19.1213ZM17 29.2395C16.8179 29.0266 16.5768 28.7397 16.2945 28.3919C15.6447 27.5913 14.7791 26.4706 13.9145 25.1891C13.0489 23.9062 12.1905 22.4713 11.5501 21.0417C10.9066 19.6055 10.5 18.2113 10.5 17C10.5 15.2761 11.1848 13.6228 12.4038 12.4038C13.6228 11.1848 15.2761 10.5 17 10.5C18.7239 10.5 20.3772 11.1848 21.5962 12.4038C22.8152 13.6228 23.5 15.2761 23.5 17C23.5 18.2113 23.0934 19.6055 22.4499 21.0417C21.8095 22.4713 20.9511 23.9062 20.0855 25.1891C19.2209 26.4706 18.3553 27.5913 17.7055 28.3919C17.4232 28.7397 17.1821 29.0266 17 29.2395Z" stroke="white"/>
</g>
<defs>
<filter id="filter0_d_1972_31219" x="0" y="0" width="34" height="40" filterUnits="userSpaceOnUse" color-interpolation-filters="sRGB">
<feFlood flood-opacity="0" result="BackgroundImageFix"/>
<feColorMatrix in="SourceAlpha" type="matrix" values="0 0 0 0 0 0 0 0 0 0 0 0 0 0 0 0 0 0 127 0" result="hardAlpha"/>
<feOffset/>
<feGaussianBlur stdDeviation="5"/>
<feColorMatrix type="matrix" values="0 0 0 0 0 0 0 0 0 0 0 0 0 0 0 0 0 0 0.08 0"/>
<feBlend mode="normal" in2="BackgroundImageFix" result="effect1_dropShadow_1972_31219"/>
<feBlend mode="normal" in="SourceGraphic" in2="effect1_dropShadow_1972_31219" result="shape"/>
</filter>
</defs>
</svg>
